<svg width="54" height="54" viewBox="0 0 54 54" fill="none" xmlns="http://www.w3.org/2000/svg">
<path d="M24.4814 18.4427L32.9189 13.3802C33.0437 13.3051 33.1469 13.1991 33.2185 13.0724C33.2902 12.9457 33.3279 12.8026 33.3279 12.6571C33.3279 12.5115 33.2902 12.3684 33.2185 12.2417C33.1469 12.115 33.0437 12.009 32.9189 11.934L24.4814 6.87147C24.3535 6.7946 24.2074 6.75305 24.0581 6.75105C23.9089 6.74906 23.7618 6.7867 23.6318 6.86013C23.5019 6.93356 23.3937 7.04015 23.3184 7.16903C23.2431 7.2979 23.2033 7.44445 23.2031 7.59372V17.7187C23.203 17.8681 23.2426 18.0149 23.3178 18.144C23.3929 18.2731 23.5011 18.38 23.6311 18.4536C23.7611 18.5272 23.9083 18.565 24.0577 18.5631C24.2071 18.5612 24.3533 18.5196 24.4814 18.4427ZM24.8906 9.08463L30.845 12.6562L24.8906 16.2278V9.08463Z" fill="black"/>
<path d="M48.2866 22.7812L52.1552 17.3652C52.2319 17.2576 52.2823 17.1335 52.3022 17.0029C52.3222 16.8723 52.3113 16.7388 52.2702 16.6132C52.2292 16.4876 52.1592 16.3734 52.0659 16.2798C51.9727 16.1862 51.8587 16.1158 51.7333 16.0743L38.7648 11.7526C38.54 8.78574 37.2027 6.01334 35.0207 3.99051C32.8388 1.96769 29.9733 0.84375 26.9979 0.84375C24.0226 0.84375 21.157 1.96769 18.9751 3.99051C16.7931 6.01334 15.4558 8.78574 15.231 11.7526L2.26422 16.0743C2.13877 16.1158 2.02483 16.1862 1.93157 16.2798C1.8383 16.3734 1.76833 16.4876 1.72729 16.6132C1.68624 16.7388 1.67527 16.8723 1.69525 17.0029C1.71524 17.1335 1.76562 17.2576 1.84234 17.3652L5.71263 22.7812L1.84403 28.1973C1.76731 28.3048 1.71693 28.429 1.69694 28.5596C1.67696 28.6902 1.68793 28.8237 1.72897 28.9493C1.77002 29.0749 1.83999 29.1891 1.93325 29.2827C2.02652 29.3763 2.14046 29.4467 2.26591 29.4882L5.90584 30.7015V45.5625C5.9058 45.7396 5.96152 45.9123 6.06511 46.056C6.16869 46.1998 6.31489 46.3072 6.48297 46.3632L26.733 53.1132C26.906 53.1714 27.0932 53.1714 27.2662 53.1132L47.5162 46.3632C47.6843 46.3072 47.8305 46.1998 47.9341 46.056C48.0377 45.9123 48.0934 45.7396 48.0933 45.5625V30.7015L51.735 29.4882C51.8604 29.4467 51.9744 29.3763 52.0676 29.2827C52.1609 29.1891 52.2309 29.0749 52.2719 28.9493C52.313 28.8237 52.3239 28.6902 52.3039 28.5596C52.284 28.429 52.2336 28.3048 52.1568 28.1973L48.2866 22.7812ZM38.7682 13.5312L50.1183 17.3146L46.9256 21.7865L37.2225 18.5524C38.1112 17.0172 38.6397 15.3004 38.7682 13.5312ZM26.9996 2.53124C29.0021 2.53124 30.9597 3.12506 32.6247 4.23761C34.2898 5.35016 35.5875 6.93147 36.3539 8.78157C37.1202 10.6317 37.3207 12.6675 36.93 14.6315C36.5394 16.5956 35.5751 18.3997 34.1591 19.8157C32.743 21.2317 30.9389 22.196 28.9749 22.5867C27.0108 22.9774 24.975 22.7769 23.1249 22.0105C21.2748 21.2442 19.6935 19.9464 18.581 18.2814C17.4684 16.6163 16.8746 14.6588 16.8746 12.6562C16.8775 9.97181 17.9452 7.39817 19.8433 5.49999C21.7415 3.60181 24.3152 2.53414 26.9996 2.53124ZM3.88084 17.3146L15.2301 13.5312C15.3594 15.2993 15.8882 17.0149 16.7767 18.549L7.07359 21.7831L3.88084 17.3146ZM3.88084 28.2479L7.07359 23.776L25.6496 29.9708L22.4568 34.4427L3.88084 28.2479ZM26.1558 51.1422L7.59334 44.9541V31.2643L22.5142 36.2382C22.6854 36.2953 22.8703 36.2961 23.0419 36.2403C23.2135 36.1846 23.3627 36.0753 23.4677 35.9286L26.1558 32.1646V51.1422ZM26.9996 28.6419L9.41838 22.7812L17.7631 19.9969C18.8657 21.3905 20.2694 22.5165 21.8689 23.2906C23.4685 24.0647 25.2225 24.4669 26.9996 24.4669C28.7766 24.4669 30.5307 24.0647 32.1302 23.2906C33.7298 22.5165 35.1335 21.3905 36.2361 19.9969L44.5808 22.7812L26.9996 28.6419ZM46.4058 44.9541L27.8433 51.1422V32.1646L30.5315 35.9286C30.6365 36.0753 30.7857 36.1846 30.9573 36.2403C31.1289 36.2961 31.3138 36.2953 31.485 36.2382L46.4058 31.2643V44.9541ZM31.5432 34.4393L28.3504 29.9675L46.9248 23.776L50.1175 28.2479L31.5432 34.4393Z" fill="black"/>
</svg>
