<svg width="54" height="54" viewBox="0 0 54 54" fill="none" xmlns="http://www.w3.org/2000/svg">
<g clip-path="url(#clip0_271_1096)">
<path d="M1.50195 46.5098V47.7769C1.50195 48.3019 3.72194 49.5872 7.83796 49.5872C11.9535 49.5872 14.174 48.3019 14.174 47.7769V46.5098C12.1856 47.4083 10.0186 47.8414 7.83796 47.7769C5.65687 47.8414 3.48991 47.4083 1.50195 46.5098Z" fill="#131313"/>
<path d="M14.174 42.8896C12.1856 43.7882 10.0186 44.2213 7.83796 44.1568C5.65687 44.2213 3.48991 43.7882 1.50195 42.8896V44.1568C1.50195 44.6818 3.72194 45.9671 7.83796 45.9671C11.9535 45.9671 14.174 44.6818 14.174 44.1568V42.8896Z" fill="#131313"/>
<path d="M7.83796 53.2083C11.9535 53.2083 14.174 51.923 14.174 51.398V50.1309C12.1856 51.0294 10.0186 51.4625 7.83796 51.398C5.65687 51.4625 3.48991 51.0294 1.50195 50.1309V51.398C1.50195 51.923 3.72194 53.2083 7.83796 53.2083Z" fill="#131313"/>
<path d="M14.174 40.5359C14.174 39.5361 11.337 38.7256 7.83796 38.7256C4.33848 38.7256 1.50195 39.5361 1.50195 40.5359C1.50195 41.5356 4.33848 42.3462 7.83796 42.3462C11.337 42.3462 14.174 41.5356 14.174 40.5359Z" fill="#131313"/>
<path d="M20.5098 46.5098V47.7769C20.5098 48.3019 22.7298 49.5872 26.8458 49.5872C30.9614 49.5872 33.1818 48.3019 33.1818 47.7769V46.5098C31.1934 47.4083 29.0264 47.8414 26.8458 47.7769C24.6647 47.8414 22.4977 47.4083 20.5098 46.5098Z" fill="#131313"/>
<path d="M26.8458 53.2083C30.9614 53.2083 33.1818 51.923 33.1818 51.398V50.1309C31.1934 51.0294 29.0264 51.4625 26.8458 51.398C24.6647 51.4625 22.4977 51.0294 20.5098 50.1309V51.398C20.5098 51.923 22.7298 53.2083 26.8458 53.2083Z" fill="#131313"/>
<path d="M33.1818 39.2686C31.1934 40.1671 29.0264 40.6002 26.8458 40.5357C24.6647 40.6002 22.4977 40.1671 20.5098 39.2686V40.5357C20.5098 41.0607 22.7298 42.346 26.8458 42.346C30.9614 42.346 33.1818 41.0607 33.1818 40.5357V39.2686Z" fill="#131313"/>
<path d="M33.1818 42.8896C31.1934 43.7882 29.0264 44.2213 26.8458 44.1568C24.6647 44.2213 22.4977 43.7882 20.5098 42.8896V44.1568C20.5098 44.6818 22.7298 45.9671 26.8458 45.9671C30.9614 45.9671 33.1818 44.6818 33.1818 44.1568V42.8896Z" fill="#131313"/>
<path d="M33.1818 33.2947C33.1818 32.2949 30.3448 31.4844 26.8458 31.4844C23.3463 31.4844 20.5098 32.2949 20.5098 33.2947C20.5098 34.2944 23.3463 35.105 26.8458 35.105C30.3448 35.105 33.1818 34.2944 33.1818 33.2947Z" fill="#131313"/>
<path d="M33.1818 35.6484C31.1934 36.547 29.0264 36.9801 26.8458 36.9156C24.6647 36.9801 22.4977 36.547 20.5098 35.6484V36.9156C20.5098 37.4406 22.7298 38.7258 26.8458 38.7258C30.9614 38.7258 33.1818 37.4406 33.1818 36.9156V35.6484Z" fill="#131313"/>
<path d="M52.1896 39.2695C50.2012 40.168 48.0342 40.6012 45.8536 40.5366C43.6725 40.6012 41.5055 40.168 39.5176 39.2695V40.5366C39.5176 41.0617 41.7376 42.3469 45.8536 42.3469C49.9692 42.3469 52.1896 41.0617 52.1896 40.5366V39.2695Z" fill="#131313"/>
<path d="M52.1896 32.0273C50.2012 32.9259 48.0342 33.359 45.8536 33.2945C43.6725 33.359 41.5055 32.9259 39.5176 32.0273V33.2945C39.5176 33.8195 41.7376 35.1047 45.8536 35.1047C49.9692 35.1047 52.1896 33.8195 52.1896 33.2945V32.0273Z" fill="#131313"/>
<path d="M52.1896 35.6484C50.2012 36.547 48.0342 36.9801 45.8536 36.9156C43.6725 36.9801 41.5055 36.547 39.5176 35.6484V36.9156C39.5176 37.4406 41.7376 38.7258 45.8536 38.7258C49.9692 38.7258 52.1896 37.4406 52.1896 36.9156V35.6484Z" fill="#131313"/>
<path d="M52.1896 42.8896C50.2012 43.7882 48.0342 44.2213 45.8536 44.1568C43.6725 44.2213 41.5055 43.7882 39.5176 42.8896V44.1568C39.5176 44.6818 41.7376 45.9671 45.8536 45.9671C49.9692 45.9671 52.1896 44.6818 52.1896 44.1568V42.8896Z" fill="#131313"/>
<path d="M39.5176 46.5098V47.7769C39.5176 48.3019 41.7376 49.5872 45.8536 49.5872C49.9692 49.5872 52.1896 48.3019 52.1896 47.7769V46.5098C50.2012 47.4083 48.0342 47.8414 45.8536 47.7769C43.6725 47.8414 41.5055 47.4083 39.5176 46.5098Z" fill="#131313"/>
<path d="M52.1896 22.4333C52.1896 21.4336 49.3526 20.623 45.8536 20.623C42.3541 20.623 39.5176 21.4336 39.5176 22.4333C39.5176 23.4331 42.3541 24.2436 45.8536 24.2436C49.3526 24.2436 52.1896 23.4331 52.1896 22.4333Z" fill="#131313"/>
<path d="M52.1896 28.4072C50.2012 29.3057 48.0342 29.7389 45.8536 29.6743C43.6725 29.7389 41.5055 29.3057 39.5176 28.4072V29.6743C39.5176 30.1994 41.7376 31.4846 45.8536 31.4846C49.9692 31.4846 52.1896 30.1994 52.1896 29.6743V28.4072Z" fill="#131313"/>
<path d="M45.8536 53.2083C49.9692 53.2083 52.1896 51.923 52.1896 51.398V50.1309C50.2012 51.0294 48.0342 51.4625 45.8536 51.398C43.6725 51.4625 41.5055 51.0294 39.5176 50.1309V51.398C39.5176 51.923 41.7376 53.2083 45.8536 53.2083Z" fill="#131313"/>
<path d="M52.1896 24.7871C50.2012 25.6856 48.0342 26.1187 45.8536 26.0542C43.6725 26.1187 41.5055 25.6856 39.5176 24.7871V26.0542C39.5176 26.5793 41.7376 27.8645 45.8536 27.8645C49.9692 27.8645 52.1896 26.5793 52.1896 26.0542V24.7871Z" fill="#131313"/>
<path d="M44.0436 0.709961V2.52025H50.9099L33.7122 19.718H14.7386L0 32.6136L1.19286 33.9767L15.4193 21.5283H34.4618L52.1899 3.80018V10.6665H54.0002V0.709961H44.0436Z" fill="#131313"/>
</g>
<defs>
<clipPath id="clip0_271_1096">
<rect width="54" height="54" fill="white"/>
</clipPath>
</defs>
</svg>
